<svg width="185" height="70" viewBox="0 0 185 70" fill="none" xmlns="http://www.w3.org/2000/svg">
<path d="M42 0L0 57L42 16.5L91.5 64H116.5L155 16.5L184.5 57L155 0L55 11L42 0Z" fill="#02AA9D"/>
<path d="M41.5 43.5L28.5 45V55.5H41.5V43.5Z" fill="#02AA9D"/>
<path d="M56.5 42L43.5 43.5V55.5L56.5 55V42Z" fill="#02AA9D"/>
<path d="M43.5 68.5V57H56.5V69.5L43.5 68.5Z" fill="#02AA9D"/>
<path d="M41.5 57H28.5V67L41.5 68.5V57Z" fill="#02AA9D"/>
<path d="M153.5 45.5L142 44V55H153.5V45.5Z" fill="#02AA9D"/>
<path d="M153.5 56.5H142V67L153.5 65.5V56.5Z" fill="#02AA9D"/>
<path d="M165 47L154.7 45.5V55H165V47Z" fill="#02AA9D"/>
<path d="M154.7 65V56.5H165V63.5L154.7 65Z" fill="#02AA9D"/>
</svg>
